<?xml version="1.0" encoding="UTF-8" standalone="no"?>
<!-- Created with Inkscape (http://www.inkscape.org/) -->

<svg
   version="1.1"
   id="svg1"
   width="793.70667"
   height="1122.52"
   viewBox="0 0 793.70667 1122.52"
   sodipodi:docname="upload_tyc7og7b337hzgynfpakfouhwg.pdf"
   xmlns:inkscape="http://www.inkscape.org/namespaces/inkscape"
   xmlns:sodipodi="http://sodipodi.sourceforge.net/DTD/sodipodi-0.dtd"
   xmlns="http://www.w3.org/2000/svg"
   xmlns:svg="http://www.w3.org/2000/svg">
  <defs
     id="defs1">
    <clipPath
       clipPathUnits="userSpaceOnUse"
       id="clipPath2">
      <path
         d="M 0,841.89 H 595.28 V 0 H 0 Z"
         transform="translate(-471.71001,-232.63771)"
         id="path2" />
    </clipPath>
    <clipPath
       clipPathUnits="userSpaceOnUse"
       id="clipPath4">
      <path
         d="M 0,841.89 H 595.28 V 0 H 0 Z"
         transform="translate(-551.73142,-273.84961)"
         id="path4" />
    </clipPath>
    <clipPath
       clipPathUnits="userSpaceOnUse"
       id="clipPath6">
      <path
         d="M 0,841.89 H 595.28 V 0 H 0 Z"
         transform="translate(-491.49711,-325.53421)"
         id="path6" />
    </clipPath>
    <clipPath
       clipPathUnits="userSpaceOnUse"
       id="clipPath8">
      <path
         d="M 0,841.89 H 595.28 V 0 H 0 Z"
         transform="translate(-123.9985,-232.459)"
         id="path8" />
    </clipPath>
    <clipPath
       clipPathUnits="userSpaceOnUse"
       id="clipPath10">
      <path
         d="M 0,841.89 H 595.28 V 0 H 0 Z"
         transform="translate(-44.081501,-273.49801)"
         id="path10" />
    </clipPath>
    <clipPath
       clipPathUnits="userSpaceOnUse"
       id="clipPath12">
      <path
         d="M 0,841.89 H 595.28 V 0 H 0 Z"
         transform="translate(-104.4429,-325.31151)"
         id="path12" />
    </clipPath>
    <clipPath
       clipPathUnits="userSpaceOnUse"
       id="clipPath14">
      <path
         d="M 0,841.89 H 595.28 V 0 H 0 Z"
         transform="translate(-219.95611,-404.13381)"
         id="path14" />
    </clipPath>
    <clipPath
       clipPathUnits="userSpaceOnUse"
       id="clipPath16">
      <path
         d="M 0,841.89 H 595.28 V 0 H 0 Z"
         transform="translate(-172.44681,-642.86672)"
         id="path16" />
    </clipPath>
    <clipPath
       clipPathUnits="userSpaceOnUse"
       id="clipPath18">
      <path
         d="M 0,841.89 H 595.28 V 0 H 0 Z"
         transform="translate(-195.70461,-652.53562)"
         id="path18" />
    </clipPath>
    <clipPath
       clipPathUnits="userSpaceOnUse"
       id="clipPath20">
      <path
         d="M 0,841.89 H 595.28 V 0 H 0 Z"
         transform="translate(-155.313,-640.26812)"
         id="path20" />
    </clipPath>
    <clipPath
       clipPathUnits="userSpaceOnUse"
       id="clipPath22">
      <path
         d="M 0,841.89 H 595.28 V 0 H 0 Z"
         transform="translate(-132.9858,-678.44141)"
         id="path22" />
    </clipPath>
    <clipPath
       clipPathUnits="userSpaceOnUse"
       id="clipPath24">
      <path
         d="M 0,841.89 H 595.28 V 0 H 0 Z"
         transform="translate(-145.6333,-634.10351)"
         id="path24" />
    </clipPath>
    <clipPath
       clipPathUnits="userSpaceOnUse"
       id="clipPath26">
      <path
         d="M 0,841.89 H 595.28 V 0 H 0 Z"
         transform="translate(-225.88671,-599.05081)"
         id="path26" />
    </clipPath>
    <clipPath
       clipPathUnits="userSpaceOnUse"
       id="clipPath28">
      <path
         d="M 0,841.89 H 595.28 V 0 H 0 Z"
         transform="translate(-214.8076,-596.66501)"
         id="path28" />
    </clipPath>
    <clipPath
       clipPathUnits="userSpaceOnUse"
       id="clipPath30">
      <path
         d="M 0,841.89 H 595.28 V 0 H 0 Z"
         transform="translate(-426.29001,-642.86672)"
         id="path30" />
    </clipPath>
    <clipPath
       clipPathUnits="userSpaceOnUse"
       id="clipPath32">
      <path
         d="M 0,841.89 H 595.28 V 0 H 0 Z"
         transform="translate(-403.03221,-652.53562)"
         id="path32" />
    </clipPath>
    <clipPath
       clipPathUnits="userSpaceOnUse"
       id="clipPath34">
      <path
         d="M 0,841.89 H 595.28 V 0 H 0 Z"
         transform="translate(-443.42481,-640.26812)"
         id="path34" />
    </clipPath>
    <clipPath
       clipPathUnits="userSpaceOnUse"
       id="clipPath36">
      <path
         d="M 0,841.89 H 595.28 V 0 H 0 Z"
         transform="translate(-465.75101,-678.44141)"
         id="path36" />
    </clipPath>
    <clipPath
       clipPathUnits="userSpaceOnUse"
       id="clipPath38">
      <path
         d="M 0,841.89 H 595.28 V 0 H 0 Z"
         transform="translate(-453.10451,-634.10351)"
         id="path38" />
    </clipPath>
    <clipPath
       clipPathUnits="userSpaceOnUse"
       id="clipPath40">
      <path
         d="M 0,841.89 H 595.28 V 0 H 0 Z"
         transform="translate(-372.85061,-599.05081)"
         id="path40" />
    </clipPath>
    <clipPath
       clipPathUnits="userSpaceOnUse"
       id="clipPath42">
      <path
         d="M 0,841.89 H 595.28 V 0 H 0 Z"
         transform="translate(-383.92971,-596.66501)"
         id="path42" />
    </clipPath>
    <clipPath
       clipPathUnits="userSpaceOnUse"
       id="clipPath44">
      <path
         d="M 0,841.89 H 595.28 V 0 H 0 Z"
         transform="translate(-298.08981,-540.36082)"
         id="path44" />
    </clipPath>
    <clipPath
       clipPathUnits="userSpaceOnUse"
       id="clipPath46">
      <path
         d="M 0,841.89 H 595.28 V 0 H 0 Z"
         transform="translate(-508.08502,-372.24901)"
         id="path46" />
    </clipPath>
    <clipPath
       clipPathUnits="userSpaceOnUse"
       id="clipPath48">
      <path
         d="M 0,841.89 H 595.28 V 0 H 0 Z"
         transform="translate(-96.021505,-429.71631)"
         id="path48" />
    </clipPath>
    <clipPath
       clipPathUnits="userSpaceOnUse"
       id="clipPath50">
      <path
         d="M 0,841.89 H 595.28 V 0 H 0 Z"
         transform="translate(-109.24761,-401.86621)"
         id="path50" />
    </clipPath>
  </defs>
  <sodipodi:namedview
     id="namedview1"
     pagecolor="#ffffff"
     bordercolor="#000000"
     borderopacity="0.25"
     inkscape:showpageshadow="2"
     inkscape:pageopacity="0.0"
     inkscape:pagecheckerboard="0"
     inkscape:deskcolor="#d1d1d1">
    <inkscape:page
       x="0"
       y="0"
       inkscape:label="1"
       id="page1"
       width="793.70667"
       height="1122.52"
       margin="197.48534 28.718666 215.03867 29.738266"
       bleed="0" />
  </sodipodi:namedview>
  <g
     id="layer-MC0"
     inkscape:groupmode="layer"
     inkscape:label="Livello 1">
    <path
       id="path1"
       d="m 0,0 c -2.023,1.105 -4.118,2.164 -6.063,3.325 -10.963,6.547 -13.561,14.914 -10.262,23.846 1.799,4.87 6.088,9.398 9.624,13.96 3.278,4.226 7.055,8.292 10.574,12.388 -6.388,3.482 -8.342,3.084 -12.124,-1.309 -5.842,-6.786 -12.442,-13.299 -18.223,-20.106 -6.418,-7.558 -7.726,-15.337 1.547,-23.747 7.865,-7.13 19.245,-11.586 30.238,-16.286 5.812,-2.483 -6.22,2.017 0,0 5.316,-1.721 17.797,-6.956 24.622,-7.013 4.614,-1.786 3.243,-2.918 9.815,-0.154 9.15,3.85 19.299,17.67 22.58,24.783 3.466,7.512 4.547,9.961 8.178,14.824 1.704,2.282 0.063,5.86 -2.836,6.97 -16.865,6.464 -12.101,2.755 -28.939,9.25 -7.124,2.748 -14.224,5.519 -21.34,8.278 -2.192,0.848 -4.17,1.652 -6.103,-0.462 C 5.743,42.481 -1.345,36.845 -5.369,30.403 -11.531,20.541 -13.083,10.369 0.014,1.764 0.457,1.471 0.584,0.977 0.858,0.575 0.573,0.382 0.287,0.192 0,0"
       style="fill:#231f20;fill-opacity:1;fill-rule:evenodd;stroke:none"
       transform="matrix(1.3333333,0,0,-1.3333333,628.94667,812.3364)"
       clip-path="url(#clipPath2)" />
    <path
       id="path3"
       d="M 0,0 C 2.261,7.598 4.453,14.211 6.047,20.925 6.371,22.291 4.957,24.791 3.486,25.486 -18.683,35.956 -19.367,32.938 -41.9,43.36 -46.438,36.575 -50.779,30.084 -55.398,23.178 -29.781,11.054 -26.202,12.398 0,0"
       style="fill:#231f20;fill-opacity:1;fill-rule:evenodd;stroke:none"
       transform="matrix(1.3333333,0,0,-1.3333333,735.64187,757.3872)"
       clip-path="url(#clipPath4)" />
    <path
       id="path5"
       d="m 0,0 c -3.14,-4.957 -6.453,-9.503 -8.978,-14.342 -3.294,-6.311 -3.025,-6.411 5.018,-9.463 0.859,1.014 1.882,2.069 2.708,3.221 2.509,3.492 4.773,7.118 7.443,10.519 3.847,4.902 3.714,5.665 -2.568,8.416 C 2.483,-1.15 1.363,-0.623 0,0"
       style="fill:#231f20;fill-opacity:1;fill-rule:evenodd;stroke:none"
       transform="matrix(1.3333333,0,0,-1.3333333,655.32947,688.4744)"
       clip-path="url(#clipPath6)" />
    <path
       id="path7"
       d="M 0,0 C 2.028,1.109 4.124,2.171 6.073,3.339 17.052,9.907 19.67,18.279 16.393,27.205 14.606,32.071 10.33,36.589 6.802,41.146 3.535,45.362 -0.231,49.422 -3.74,53.509 2.657,57.006 4.611,56.61 8.381,52.228 14.205,45.453 20.792,38.954 26.556,32.159 32.952,24.614 34.243,16.838 24.948,8.41 17.066,1.264 5.676,-3.216 -5.328,-7.941 c -5.819,-2.496 6.224,2.03 0,0 -5.32,-1.733 -17.817,-6.995 -24.64,-7.067 -4.617,-1.794 -3.25,-2.924 -9.816,-0.173 -9.141,3.828 -19.254,17.628 -22.52,24.733 -3.444,7.506 -4.521,9.952 -8.14,14.807 -1.698,2.281 -0.051,5.861 2.853,6.977 16.881,6.499 12.106,2.783 28.96,9.311 7.129,2.761 14.241,5.551 21.361,8.323 2.195,0.853 4.176,1.663 6.103,-0.447 C -5.638,42.471 1.436,36.849 5.447,30.413 11.584,20.562 13.11,10.396 -0.006,1.764 -0.453,1.47 -0.581,0.974 -0.856,0.571 -0.57,0.38 -0.285,0.189 0,0"
       style="fill:#231f20;fill-opacity:1;fill-rule:evenodd;stroke:none"
       transform="matrix(1.3333333,0,0,-1.3333333,165.33133,812.57467)"
       clip-path="url(#clipPath8)" />
    <path
       id="path9"
       d="m 0,0 c -2.244,7.595 -4.418,14.204 -5.996,20.915 -0.322,1.366 1.098,3.866 2.57,4.565 22.194,10.519 22.873,7.499 45.432,17.97 C 46.527,36.675 50.852,30.193 55.455,23.297 29.807,11.119 26.229,12.458 0,0"
       style="fill:#231f20;fill-opacity:1;fill-rule:evenodd;stroke:none"
       transform="matrix(1.3333333,0,0,-1.3333333,58.775333,757.856)"
       clip-path="url(#clipPath10)" />
    <path
       id="path11"
       d="m 0,0 c 3.126,-4.949 6.427,-9.488 8.941,-14.321 3.278,-6.306 3.01,-6.406 -5.04,-9.472 -0.858,1.01 -1.877,2.063 -2.702,3.212 -2.499,3.489 -4.755,7.106 -7.416,10.503 -3.835,4.894 -3.7,5.656 2.589,8.422 C -2.488,-1.154 -1.366,-0.625 0,0"
       style="fill:#231f20;fill-opacity:1;fill-rule:evenodd;stroke:none"
       transform="matrix(1.3333333,0,0,-1.3333333,139.2572,688.77133)"
       clip-path="url(#clipPath12)" />
    <path
       id="path13"
       d="m 0,0 c -1.32,-0.417 -2.635,-0.833 -3.95,-1.249 6.245,-11.428 12.485,-22.854 18.726,-34.278 1.19,0.442 2.379,0.886 3.572,1.329 C 12.231,-22.798 6.116,-11.397 0,0 m 141.625,-91.752 c 2.069,-6.451 3.943,-12.309 5.82,-18.165 0.712,0.061 1.429,0.123 2.145,0.187 -0.699,6.321 -1.401,12.646 -2.153,19.469 5.569,1.411 10.806,2.741 17.512,4.445 -1.133,9.346 -2.286,18.846 -3.602,29.666 -6.825,-0.567 -13.007,-1.089 -20.725,-1.735 -2.491,8.043 -5.011,16.18 -7.537,24.317 -0.615,-0.084 -1.231,-0.172 -1.846,-0.255 0.92,-8.051 1.843,-16.101 2.899,-25.326 -12.728,-2.245 -25.101,-4.423 -38.328,-6.754 0.997,-11.255 0.312,-22.218 3.251,-32.452 4.877,-16.98 -3.906,-26.506 -21.504,-32.787 -13.093,6.38 -27.043,13.081 -20.702,29.395 3.975,10.223 -5.297,24.092 11.587,31.333 -22.061,10.311 -47.769,9.721 -73.557,15.057 -1.437,-10.596 -2.718,-20.073 -4.167,-30.766 13.973,-2.592 27.191,-5.36 40.574,-7.413 7.849,-1.203 9.832,-4.296 10.176,-10.868 1.23,-23.691 -1.927,-46.366 -16.633,-67.346 4.297,5.452 8.598,10.905 13.756,17.442 v -99.761 c -1.34,-0.41 -2.68,-0.814 -4.025,-1.224 -4.156,5.52 -8.312,11.039 -12.48,16.573 -14.128,-0.413 -6.874,10.769 -10.365,17.396 -1.3,-2.825 -2.251,-4.887 -3.533,-7.663 -18.631,18.913 -25.364,40.202 -25.046,63.664 0.296,21.953 -0.06,21.956 -11.307,40.483 2.955,1.307 5.925,2.617 10.378,4.587 -2.556,0 -3.643,0.258 -4.429,-0.041 -10.862,-4.085 -15.149,1.181 -14.813,8.714 1.47,33.044 2.6,66.144 6.108,99.055 2.138,20.055 17.01,35.235 36.564,46.447 24.064,13.805 48.757,26.846 73.981,40.66 9.388,-6.262 19.732,-13.162 30.538,-20.367 -2.525,-3.387 -4.686,-6.286 -6.848,-9.184 11.932,12.257 22.191,1.354 30.892,-2.39 34.823,-14.988 54.465,-39.19 56.302,-72.303 1.479,-26.598 2.214,-53.234 2.672,-79.86 0.065,-3.9 -2.215,-8.498 -5.149,-11.637 -11.736,-12.545 -16.622,-26.385 -15.319,-42.298 3.171,-38.617 -20.988,-66.405 -53.899,-92.563 -0.451,5.257 -0.973,9.001 -1.058,12.75 -0.951,42.859 -1.81,85.712 -2.744,128.567 -0.462,21.211 -0.512,21.211 26.614,22.951"
       style="fill:#231f20;fill-opacity:1;fill-rule:evenodd;stroke:none"
       transform="matrix(1.3333333,0,0,-1.3333333,293.2748,583.67493)"
       clip-path="url(#clipPath14)" />
    <path
       id="path15"
       d="m 0,0 c -13.493,8.612 -26.284,16.66 -38.917,24.883 -6.873,4.479 -6.75,4.612 -15.795,2.22 5.992,-4.062 11.504,-7.863 17.1,-11.576 6.851,-4.54 14.128,-8.673 20.548,-13.603 C -11.952,-2.001 -6.935,-2.487 0,0"
       style="fill:#231f20;fill-opacity:1;fill-rule:evenodd;stroke:none"
       transform="matrix(1.3333333,0,0,-1.3333333,229.92907,265.3644)"
       clip-path="url(#clipPath16)" />
    <path
       id="path17"
       d="m 0,0 c -1.428,-9.478 -1.425,-9.5 -11.78,-11.073 -2.985,-0.452 -6.019,-0.678 -9.008,-1.112 -2.777,-0.402 -5.525,-0.942 -8.888,-1.525 4.221,-3.838 8.13,-6.158 14.409,-4.602 6.977,1.728 14.258,2.567 21.282,4.181 2.307,0.527 4.99,1.924 6.014,3.574 0.537,0.864 -1.849,3.39 -3.443,4.717 C 6.177,-3.829 3.305,-2.208 0,0"
       style="fill:#231f20;fill-opacity:1;fill-rule:evenodd;stroke:none"
       transform="matrix(1.3333333,0,0,-1.3333333,260.93947,252.47253)"
       clip-path="url(#clipPath18)" />
    <path
       id="path19"
       d="m 0,0 c -13.587,9.199 -27.136,18.443 -40.815,27.545 -1.576,1.048 -3.884,1.318 -6.273,1.324 C -31.875,18.452 -18.129,6.545 -1.194,-1.785 -0.796,-1.189 -0.398,-0.594 0,0"
       style="fill:#231f20;fill-opacity:1;fill-rule:evenodd;stroke:none"
       transform="matrix(1.3333333,0,0,-1.3333333,207.084,268.8292)"
       clip-path="url(#clipPath20)" />
    <path
       id="path21"
       d="m 0,0 c -13.385,4.767 -25.219,0.326 -37.271,-0.579 -0.14,-0.587 -0.277,-1.171 -0.417,-1.755 2.48,-0.947 4.959,-1.895 7.437,-2.841 0.185,0.286 0.372,0.574 0.559,0.862 -1.014,0.941 -2.027,1.885 -3.459,3.217 5.812,-0.701 11.044,-1.962 16.211,-1.784 C -11.56,-2.695 -6.243,-1.125 0,0"
       style="fill:#231f20;fill-opacity:1;fill-rule:evenodd;stroke:none"
       transform="matrix(1.3333333,0,0,-1.3333333,177.3144,217.93147)"
       clip-path="url(#clipPath22)" />
    <path
       id="path23"
       d="M 0,0 C 6.767,-6.851 14.086,-2.126 21.192,-1.894 15.413,4.729 12.522,4.978 0,0"
       style="fill:#231f20;fill-opacity:1;fill-rule:evenodd;stroke:none"
       transform="matrix(1.3333333,0,0,-1.3333333,194.17773,277.04867)"
       clip-path="url(#clipPath24)" />
    <path
       id="path25"
       d="m 0,0 c 4.083,0.81 8.215,1.548 12.387,2.223 -15.135,9.67 -30.257,19.353 -45.182,29.245 -5.494,3.641 -9.962,3.119 -16.023,0.857 C -35.772,23.683 -23.176,15.326 -10.563,6.983 -7.042,4.655 -3.521,2.327 0,0"
       style="fill:#231f20;fill-opacity:1;fill-rule:evenodd;stroke:none"
       transform="matrix(1.3333333,0,0,-1.3333333,301.18227,323.7856)"
       clip-path="url(#clipPath26)" />
    <path
       id="path27"
       d="m 0,0 c 1.82,0.424 3.649,0.834 5.489,1.229 -15.33,10.238 -30.662,20.474 -45.988,30.714 -1.689,1.128 -4.097,1.496 -6.168,2.219 -0.341,-0.549 -0.682,-1.097 -1.02,-1.645 7.804,-5.342 15.589,-10.704 23.416,-16.024 C -16.181,10.995 -8.092,5.498 0,0"
       style="fill:#231f20;fill-opacity:1;fill-rule:evenodd;stroke:none"
       transform="matrix(1.3333333,0,0,-1.3333333,286.41013,326.96667)"
       clip-path="url(#clipPath28)" />
    <path
       id="path29"
       d="m 0,0 c 13.492,8.612 26.285,16.66 38.916,24.883 6.874,4.479 6.752,4.612 15.798,2.22 C 48.72,23.041 43.208,19.24 37.612,15.527 30.763,10.987 23.483,6.854 17.064,1.924 11.952,-2.001 6.934,-2.487 0,0"
       style="fill:#231f20;fill-opacity:1;fill-rule:evenodd;stroke:none"
       transform="matrix(1.3333333,0,0,-1.3333333,568.38667,265.3644)"
       clip-path="url(#clipPath30)" />
    <path
       id="path31"
       d="m 0,0 c 1.43,-9.478 1.425,-9.5 11.78,-11.073 2.985,-0.452 6.018,-0.678 9.008,-1.112 2.777,-0.402 5.526,-0.942 8.888,-1.525 -4.22,-3.838 -8.131,-6.158 -14.409,-4.602 -6.978,1.728 -14.256,2.567 -21.283,4.181 -2.308,0.527 -4.989,1.924 -6.011,3.574 -0.538,0.864 1.848,3.39 3.442,4.717 2.41,2.011 5.279,3.632 8.585,5.84"
       style="fill:#231f20;fill-opacity:1;fill-rule:evenodd;stroke:none"
       transform="matrix(1.3333333,0,0,-1.3333333,537.37627,252.47253)"
       clip-path="url(#clipPath32)" />
    <path
       id="path33"
       d="m 0,0 c 13.587,9.199 27.134,18.443 40.813,27.545 1.577,1.048 3.884,1.318 6.274,1.324 C 31.876,18.452 18.129,6.545 1.193,-1.785 0.797,-1.189 0.397,-0.594 0,0"
       style="fill:#231f20;fill-opacity:1;fill-rule:evenodd;stroke:none"
       transform="matrix(1.3333333,0,0,-1.3333333,591.23307,268.8292)"
       clip-path="url(#clipPath34)" />
    <path
       id="path35"
       d="m 0,0 c 13.387,4.767 25.22,0.326 37.272,-0.579 0.141,-0.587 0.277,-1.171 0.416,-1.755 -2.478,-0.947 -4.959,-1.895 -7.436,-2.841 -0.186,0.286 -0.373,0.574 -0.56,0.862 1.015,0.941 2.029,1.885 3.461,3.217 C 27.34,-1.797 22.106,-3.058 16.94,-2.88 11.561,-2.695 6.243,-1.125 0,0"
       style="fill:#231f20;fill-opacity:1;fill-rule:evenodd;stroke:none"
       transform="matrix(1.3333333,0,0,-1.3333333,621.00133,217.93147)"
       clip-path="url(#clipPath36)" />
    <path
       id="path37"
       d="M 0,0 C -6.766,-6.851 -14.089,-2.126 -21.191,-1.894 -15.414,4.729 -12.521,4.978 0,0"
       style="fill:#231f20;fill-opacity:1;fill-rule:evenodd;stroke:none"
       transform="matrix(1.3333333,0,0,-1.3333333,604.13933,277.04867)"
       clip-path="url(#clipPath38)" />
    <path
       id="path39"
       d="m 0,0 c -4.084,0.81 -8.215,1.548 -12.389,2.223 15.136,9.67 30.258,19.353 45.184,29.245 5.492,3.641 9.962,3.119 16.024,0.857 C 35.771,23.683 23.176,15.326 10.563,6.983 7.042,4.655 3.521,2.327 0,0"
       style="fill:#231f20;fill-opacity:1;fill-rule:evenodd;stroke:none"
       transform="matrix(1.3333333,0,0,-1.3333333,497.13413,323.7856)"
       clip-path="url(#clipPath40)" />
    <path
       id="path41"
       d="m 0,0 c -1.82,0.424 -3.651,0.834 -5.489,1.229 15.328,10.238 30.66,20.474 45.987,30.714 1.69,1.128 4.097,1.496 6.171,2.219 0.339,-0.549 0.68,-1.097 1.018,-1.645 C 39.881,27.175 32.097,21.813 24.272,16.493 16.181,10.995 8.09,5.498 0,0"
       style="fill:#231f20;fill-opacity:1;fill-rule:evenodd;stroke:none"
       transform="matrix(1.3333333,0,0,-1.3333333,511.90627,326.96667)"
       clip-path="url(#clipPath42)" />
    <path
       id="path43"
       d="M 0,0 C -1.219,0.816 -2.437,1.633 -3.657,2.449 -2.436,3.256 -1.216,4.065 0.004,4.873 1.224,4.067 2.442,3.261 3.661,2.455 2.44,1.637 1.221,0.818 0,0 m 267.833,-157.583 c -12.581,8.856 -13.059,8.385 -26.077,16.792 -80.563,52.029 -161.158,104.02 -241.764,156.001 0,0 -166.344,-107.506 -241.807,-156.324 -13.041,-8.435 -13.518,-7.968 -26.118,-16.849 -11.265,-7.939 -7.486,-14.178 -6.204,-26.406 1.08,-10.301 3.613,-20.495 5.637,-30.715 0.636,-3.205 1.698,-6.344 2.687,-9.955 22.128,9.832 22.125,6.135 43.885,15.804 -3.263,8.388 -5.944,15.898 -9.114,23.256 -3.236,7.504 -3.574,15.074 -1.429,22.726 3.284,11.694 12.265,20.522 22.668,27.9 22.409,15.885 45.388,31.211 68.389,46.494 44.602,29.633 89.265,59.203 133.929,88.772 1.217,-0.828 2.435,-1.655 3.653,-2.482 -27.609,-18.502 -55.2,-37.023 -82.721,-55.618 -40.862,-27.607 -81.387,-55.571 -121.848,-83.599 -8.755,-6.065 -14.667,-13.52 -14.944,-23.995 -0.365,-13.811 4.298,-26.24 10.749,-39.062 3.924,1.661 7.214,3.057 10.646,4.511 -2.239,4.723 -3.958,9.046 -6.288,13.122 -4.132,7.227 -7.085,14.543 -5.453,22.759 2.497,12.527 11.258,21.549 22.599,29.264 63.704,43.329 127.397,86.672 191.088,130.017 63.679,-43.273 127.358,-86.545 191.051,-129.801 11.322,-7.69 20.062,-16.694 22.524,-29.217 1.615,-8.211 -1.353,-15.532 -5.507,-22.771 -2.338,-4.078 -4.07,-8.406 -6.32,-13.134 3.428,-1.447 6.716,-2.834 10.636,-4.49 6.483,12.837 11.178,25.277 10.845,39.088 -0.252,10.472 -6.145,17.915 -14.886,23.962 -40.39,27.94 -80.849,55.82 -121.645,83.341 -27.568,18.599 -55.207,37.124 -82.866,55.629 1.219,0.83 2.439,1.66 3.658,2.489 44.686,-29.536 89.371,-59.074 133.996,-88.673 22.964,-15.235 45.905,-30.511 68.273,-46.351 10.387,-7.355 19.348,-16.164 22.6,-27.851 2.127,-7.648 1.772,-15.218 -1.482,-22.729 -3.189,-7.365 -5.888,-14.88 -9.172,-23.277 21.737,-9.622 21.739,-5.922 43.846,-15.708 0.995,3.612 2.066,6.754 2.709,9.96 2.051,10.226 4.611,20.424 5.715,30.727 1.308,12.232 5.103,18.478 -6.138,26.393"
       style="fill:#231f20;fill-opacity:1;fill-rule:evenodd;stroke:none"
       transform="matrix(1.3333333,0,0,-1.3333333,397.45307,402.03893)"
       clip-path="url(#clipPath44)" />
    <path
       id="path45"
       d="m 0,0 c -0.033,1.037 -0.139,2.086 -0.349,3.152 -1.964,9.994 -8.394,18.222 -20.846,26.68 -1.699,1.153 -3.397,2.308 -5.095,3.462 -16.24,-15.529 -38.166,-28.836 -64.131,-38.927 0.77,-15.408 1.362,-31.955 1.812,-50.66 C -51.969,-42.774 -21.364,-23.324 0,0"
       style="fill:#231f20;fill-opacity:1;fill-rule:evenodd;stroke:none"
       transform="matrix(1.3333333,0,0,-1.3333333,677.44667,626.188)"
       clip-path="url(#clipPath46)" />
    <path
       id="path47"
       d="m 0,0 c -7.403,12.582 -11.442,26.067 -11.442,40.102 0,68.565 95.84,124.146 214.066,124.146 118.226,0 214.067,-55.581 214.067,-124.146 0,-14.164 -4.113,-27.768 -11.646,-40.447 10.419,-6.726 20.892,-13.488 31.396,-20.272 5.72,13.215 8.777,27.136 8.777,41.513 0,85.818 -108.894,155.387 -243.217,155.387 -134.323,0 -243.213,-69.569 -243.213,-155.387 0,-14.479 3.101,-28.495 8.899,-41.793 C -22.548,-14.582 -11.632,-7.522 0,0"
       style="fill:#231f20;fill-opacity:1;fill-rule:evenodd;stroke:none"
       transform="matrix(1.3333333,0,0,-1.3333333,128.02867,549.56493)"
       clip-path="url(#clipPath48)" />
    <path
       id="path49"
       d="m 0,0 c -12.478,-8.488 -18.932,-16.734 -20.925,-26.735 -0.194,-0.978 -0.304,-1.941 -0.349,-2.893 21.476,-23.444 52.287,-42.974 89.183,-56.498 0.738,16.743 1.567,33.753 2.83,50.739 C 44.43,-25.208 22.247,-11.731 5.898,4.014 3.932,2.676 1.966,1.338 0,0"
       style="fill:#231f20;fill-opacity:1;fill-rule:evenodd;stroke:none"
       transform="matrix(1.3333333,0,0,-1.3333333,145.66347,586.6984)"
       clip-path="url(#clipPath50)" />
  </g>
</svg>
